{"title":"Nasha 2013 Hindi HD WEBRip 720p AVC AC3 6.CH-Team Telly","uid":8830049,"size":2709592045,"categoryP":"video","categoryS":"hd___movies","magnet":"?xt=urn:btih:f8e569d9c5e635f99675b78bd9057f8e7bf36fe7&amp;dn=Nasha+2013+Hindi+HD+WEBRip+720p+AVC+AC3+6.CH-Team+Telly&amp;tr=udp%3A%2F%2Ftracker.openbittorrent.com%3A80&amp;tr=udp%3A%2F%2Fopen.demonii.com%3A1337&amp;tr=udp%3A%2F%2Ftracker.coppersurfer.tk%3A6969&amp;tr=udp%3A%2F%2Fexodus.desync.com%3A6969","seeders":1,"leechers":1,"uploader":"HeroMaster","files":-1,"time":1376946495,"description":":::::: TEAM TELLY AND DEEP1007 PRESENTS :::::::\n\n  &lt;a href=&quot;\nhttp://i.imgur.com/wUMp3RR.png&quot; rel=&quot;nofollow&quot; target=&quot;_NEW&quot;&gt;\nhttp://i.imgur.com/wUMp3RR.png&lt;/a&gt;\n\n\n:::: Nasha 2013 Hindi HD WEBRip 720p AVC AC3 6.CH-Team Telly ::::\n\n\n::Information::\n\n\nNasha *2013*\n&quot;HD WEBRip - 720p - AVC - AC3 6.CH&quot;\n..: Team Telly ::..\n..:: eXclusive - deep1007 ::..\n\n\nGeneral\nComplete name                            : Nasha [2013].mkv\nFormat                                   : Matroska\nFormat version                           : Version 2\nFile size                                : 2.49 GiB\nDuration                                 : 1h 53mn\nOverall bit rate mode                    : Constant\nOverall bit rate                         : 3 139 Kbps\nEncoded date                             : UTC 2013-08-19 15:39:24\n\nVideo\nID                                       : 2\nFormat                                   : AVC\nFormat/Info                              : Advanced Video Codec\nFormat profile                           : &lt;a class=&quot;__cf_email__&quot; href=&quot;/cdn-cgi/l/email-protection&quot; data-cfemail=&quot;7830111f1038344b5649&quot;&gt;[email&amp;#160;protected]&lt;/a&gt;&lt;script cf-hash='f9e31' type=&quot;text/javascript&quot;&gt;\n/* &lt;![CDATA[ */!function(){try{var t=&quot;currentScript&quot;in document?document.currentScript:function(){for(var t=document.getElementsByTagName(&quot;script&quot;),e=t.length;e--;)if(t[e].getAttribute(&quot;cf-hash&quot;))return t[e]}();if(t&amp;&amp;t.previousSibling){var e,r,n,i,c=t.previousSibling,a=c.getAttribute(&quot;data-cfemail&quot;);if(a){for(e=&quot;&quot;,r=parseInt(a.substr(0,2),16),n=2;a.length-n;n+=2)i=parseInt(a.substr(n,2),16)^r,e+=String.fromCharCode(i);e=document.createTextNode(e),c.parentNode.replaceChild(e,c)}}}catch(u){}}();/* ]]&gt; */&lt;/script&gt;\nFormat settings, CABAC                   : Yes\nFormat settings, ReFrames                : 3 frames\nCodec ID                                 : V_MPEG4/ISO/AVC\nDuration                                 : 1h 53mn\nBit rate mode                            : Constant\nBit rate                                 : 2 693 Kbps\nNominal bit rate                         : 3 000 Kbps / 3 000 Kbps\nWidth                                    : 1 280 pixels\nHeight                                   : 544 pixels\nDisplay aspect ratio                     : 2.35:1\nFrame rate mode                          : Constant\nFrame rate                               : 23.976 fps\nStandard                                 : NTSC\nColor space                              : YUV\nChroma subsampling                       : 4:2:0\nBit depth                                : 8 bits\nScan type                                : MBAFF\nBits/(Pixel*Frame)                       : 0.161\nStream size                              : 2.14 GiB (86%)\nWriting library                          : x264 core 114\nDefault                                  : Yes\nForced                                   : No\nColor primaries                          : BT.709\nTransfer characteristics                 : BT.709\nMatrix coefficients                      : BT.709\n\nAudio\nID                                       : 1\nFormat                                   : AC-3\nFormat/Info                              : Audio Coding 3\nMode extension                           : CM (complete main)\nFormat settings, Endianness              : Big\nCodec ID                                 : A_AC3\nDuration                                 : 1h 53mn\nBit rate mode                            : Constant\nBit rate                                 : 384 Kbps\nChannel(s)                               : 6 channels\nChannel positions                        : Front: L C R, Side: L R, LFE\nSampling rate                            : 48.0 KHz\nBit depth                                : 16 bits\nCompression mode                         : Lossy\nStream size                              : 312 MiB (12%)\nDefault                                  : Yes\nForced                                   : No\n\n\n::IMDB::\n\n &lt;a href=&quot;\nhttp://www.imdb.com/title/tt3044882/&quot; rel=&quot;nofollow&quot; target=&quot;_NEW&quot;&gt;\nhttp://www.imdb.com/title/tt3044882/&lt;/a&gt;\n\n\n::Greetz and Respect::\n\n\nAll Credits Goes To Team TellyTv and deep1007 \n\n\n::Notes::\n\n\nScreens are added in the torrent, Screenshots below are made in small \n\nSize for its original View of the Movie, enjoy and have fun watching :)\n\n\n::Poster::\n\n &lt;a href=&quot;\nhttp://i.imgur.com/QbbVjRB.jpg&quot; rel=&quot;nofollow&quot; target=&quot;_NEW&quot;&gt;\nhttp://i.imgur.com/QbbVjRB.jpg&lt;/a&gt;\n\n\n::Screenshots::\n\n &lt;a href=&quot;\nhttp://i.imgur.com/EB0uh7w.png&quot; rel=&quot;nofollow&quot; target=&quot;_NEW&quot;&gt;\nhttp://i.imgur.com/EB0uh7w.png&lt;/a&gt;\n\n &lt;a href=&quot;\nhttp://i.imgur.com/09rZo5b.png&quot; rel=&quot;nofollow&quot; target=&quot;_NEW&quot;&gt;\nhttp://i.imgur.com/09rZo5b.png&lt;/a&gt;\n\n &lt;a href=&quot;\nhttp://i.imgur.com/YTSgEbO.png&quot; rel=&quot;nofollow&quot; target=&quot;_NEW&quot;&gt;\nhttp://i.imgur.com/YTSgEbO.png&lt;/a&gt;\n\n\nSEED AND ENJOY!","torrent":{"xt":"urn:btih:f8e569d9c5e635f99675b78bd9057f8e7bf36fe7","amp;dn":"Nasha+2013+Hindi+HD+WEBRip+720p+AVC+AC3+6.CH-Team+Telly","amp;tr":["udp%3A%2F%2Ftracker.openbittorrent.com%3A80","udp%3A%2F%2Fopen.demonii.com%3A1337","udp%3A%2F%2Ftracker.coppersurfer.tk%3A6969","udp%3A%2F%2Fexodus.desync.com%3A6969"],"infoHash":"f8e569d9c5e635f99675b78bd9057f8e7bf36fe7","infoHashBuffer":{"type":"Buffer","data":[248,229,105,217,197,230,53,249,150,117,183,139,217,5,127,142,123,243,111,231]},"announce":[],"urlList":[]}}